<svg xmlns="http://www.w3.org/2000/svg" width="50" height="50" viewBox="0 0 50 50">
  <metadata><?xpacket begin="﻿" id="W5M0MpCehiHzreSzNTczkc9d"?>
<x:xmpmeta xmlns:x="adobe:ns:meta/" x:xmptk="Adobe XMP Core 5.6-c138 79.159824, 2016/09/14-01:09:01        ">
   <rdf:RDF xmlns:rdf="http://www.w3.org/1999/02/22-rdf-syntax-ns#">
      <rdf:Description rdf:about=""/>
   </rdf:RDF>
</x:xmpmeta>
                                                                                                    
                                                                                                    
                                                                                                    
                                                                                                    
                                                                                                    
                                                                                                    
                                                                                                    
                                                                                                    
                                                                                                    
                                                                                                    
                                                                                                    
                                                                                                    
                                                                                                    
                                                                                                    
                                                                                                    
                                                                                                    
                                                                                                    
                                                                                                    
                                                                                                    
                                                                                                    
                           
<?xpacket end="w"?></metadata>
<defs>
    <style>
      .cls-1 {
        fill: #6a462b;
        fill-rule: evenodd;
      }
    </style>
  </defs>
  <path id="_03_roads" data-name="03_roads" class="cls-1" d="M1185.16,960.435H1161a11.7,11.7,0,0,0-11.66,11.747V989.8a0.842,0.842,0,0,1-.84.839h-11.66a0.834,0.834,0,0,1-.83-0.839V972.182A25.083,25.083,0,0,1,1161,947.009h24.16a0.834,0.834,0,0,1,.83.84V959.6A0.834,0.834,0,0,1,1185.16,960.435Zm-0.83-11.747H1161a23.415,23.415,0,0,0-23.33,23.494v16.781h10V972.182A13.379,13.379,0,0,1,1161,958.757h23.33V948.688Zm-22.64,4.2h3.56a0.839,0.839,0,0,1,0,1.678h-3.56A0.839,0.839,0,0,1,1161.69,952.883Zm8.9,0h3.57a0.839,0.839,0,0,1,0,1.678h-3.57A0.839,0.839,0,0,1,1170.59,952.883Zm8.74,0h1.66a0.839,0.839,0,1,1,0,1.678h-1.66A0.839,0.839,0,1,1,1179.33,952.883Zm-22.83,2.266a16.976,16.976,0,0,0-3.18,1.2,0.835,0.835,0,0,1-1.12-.385,0.845,0.845,0,0,1,.38-1.122,19.157,19.157,0,0,1,3.49-1.313,0.832,0.832,0,0,1,1.02.595A0.842,0.842,0,0,1,1156.5,955.149Zm-9.65,6.66a0.824,0.824,0,0,1-1.16.183,0.845,0.845,0,0,1-.18-1.172,19.3,19.3,0,0,1,2.47-2.8,0.832,0.832,0,0,1,1.18.045,0.844,0.844,0,0,1-.05,1.186A17.926,17.926,0,0,0,1146.85,961.809Zm-3.17,7.893a0.845,0.845,0,0,1-.95.714,0.832,0.832,0,0,1-.7-0.948,18.848,18.848,0,0,1,.87-3.647,0.831,0.831,0,0,1,1.06-.516,0.842,0.842,0,0,1,.52,1.069A16.429,16.429,0,0,0,1143.68,969.7Zm-1.01,4.419a0.834,0.834,0,0,1,.83.839v3.588a0.83,0.83,0,1,1-1.66,0V974.96A0.834,0.834,0,0,1,1142.67,974.121Zm0,8.969a0.834,0.834,0,0,1,.83.839v1.678a0.83,0.83,0,1,1-1.66,0v-1.678A0.834,0.834,0,0,1,1142.67,983.09Zm13.29-4.224a2.248,2.248,0,0,1,3.44,0l2.03,2.4a5.2,5.2,0,0,1-2.92,8.475v3.427a0.842,0.842,0,0,1-.84.839,0.834,0.834,0,0,1-.83-0.839v-3.42c-3.84-.587-5.51-5.414-2.93-8.463Zm0.88,9.174v-2.423a0.834,0.834,0,0,1,.83-0.839,0.842,0.842,0,0,1,.84.839v2.417a3.542,3.542,0,0,0,1.66-5.679l-2.04-2.4a0.586,0.586,0,0,0-.9,0l-2.05,2.421A3.52,3.52,0,0,0,1156.84,988.04Zm2.91-21.857,2.04-2.421a2.249,2.249,0,0,1,3.44,0l2.04,2.4a5.205,5.205,0,0,1-2.93,8.476v3.426a0.833,0.833,0,0,1-.83.839,0.842,0.842,0,0,1-.84-0.839v-3.419C1158.83,974.058,1157.17,969.231,1159.75,966.183Zm2.92,6.753v-2.422a0.842,0.842,0,0,1,.84-0.839,0.833,0.833,0,0,1,.83.839v2.416a3.541,3.541,0,0,0,1.66-5.678l-2.03-2.4a0.6,0.6,0,0,0-.91,0l-2.05,2.421A3.519,3.519,0,0,0,1162.67,972.936Zm4.96,5.93a2.248,2.248,0,0,1,3.44,0l2.03,2.4a5.2,5.2,0,0,1-2.93,8.475v3.427a0.834,0.834,0,0,1-.83.839,0.842,0.842,0,0,1-.84-0.839v-3.42c-3.84-.587-5.5-5.414-2.92-8.463Zm0.87,9.174v-2.423a0.842,0.842,0,0,1,.84-0.839,0.834,0.834,0,0,1,.83.839v2.417a3.542,3.542,0,0,0,1.66-5.679l-2.03-2.4a0.6,0.6,0,0,0-.91,0l-2.04,2.421A3.513,3.513,0,0,0,1168.5,988.04Zm2.91-21.857,2.05-2.421a2.249,2.249,0,0,1,3.44,0l2.03,2.4a5.2,5.2,0,0,1-2.93,8.476v3.426a0.83,0.83,0,1,1-1.66,0v-3.419C1170.5,974.058,1168.83,969.231,1171.41,966.183Zm2.93,6.753v-2.422a0.83,0.83,0,1,1,1.66,0v2.416a3.537,3.537,0,0,0,1.66-5.678l-2.03-2.4a0.587,0.587,0,0,0-.9,0l-2.05,2.421A3.511,3.511,0,0,0,1174.34,972.936Zm4.95,5.93a2.248,2.248,0,0,1,3.44,0l2.03,2.4a5.2,5.2,0,0,1-2.93,8.475v3.427a0.83,0.83,0,1,1-1.66,0v-3.42c-3.84-.587-5.51-5.414-2.93-8.463Zm0.88,9.174v-2.423a0.83,0.83,0,1,1,1.66,0v2.417a3.534,3.534,0,0,0,1.66-5.679l-2.03-2.4a0.586,0.586,0,0,0-.9,0l-2.05,2.421A3.515,3.515,0,0,0,1180.17,988.04Z" transform="translate(-1136.015 -945.5)"/>
</svg>
