<svg xmlns="http://www.w3.org/2000/svg" width="50" height="50" viewBox="0 0 50 50">
  <metadata><?xpacket begin="﻿" id="W5M0MpCehiHzreSzNTczkc9d"?>
<x:xmpmeta xmlns:x="adobe:ns:meta/" x:xmptk="Adobe XMP Core 5.6-c138 79.159824, 2016/09/14-01:09:01        ">
   <rdf:RDF xmlns:rdf="http://www.w3.org/1999/02/22-rdf-syntax-ns#">
      <rdf:Description rdf:about=""/>
   </rdf:RDF>
</x:xmpmeta>
                                                                                                    
                                                                                                    
                                                                                                    
                                                                                                    
                                                                                                    
                                                                                                    
                                                                                                    
                                                                                                    
                                                                                                    
                                                                                                    
                                                                                                    
                                                                                                    
                                                                                                    
                                                                                                    
                                                                                                    
                                                                                                    
                                                                                                    
                                                                                                    
                                                                                                    
                                                                                                    
                           
<?xpacket end="w"?></metadata>
<defs>
    <style>
      .cls-1 {
        fill: #6a462b;
        fill-rule: evenodd;
      }
    </style>
  </defs>
  <path id="_02_border" data-name="02_border" class="cls-1" d="M980.417,960.327h0l-5,5.026h0l-5,5.026h0l-5,5.026h0l-3.088,3.106v11.818h15.831a0.838,0.838,0,0,1,0,1.676H934.833a0.838,0.838,0,0,1,0-1.676h0.833V958.341A2.509,2.509,0,0,1,934,955.982v-2.513a0.835,0.835,0,0,1,.833-0.838h23.331a0.835,0.835,0,0,1,.833.838v2.513a2.509,2.509,0,0,1-1.666,2.359v15.7l0.053-.03,6.856-6.893h0l5-5.027h0l5-5.026h0l4.065-4.088a3.3,3.3,0,0,1,1.192-.762c0.01,0,.022,0,0.033-0.01a3.309,3.309,0,0,1,3.046.4,3.348,3.348,0,0,1,1.418,2.741,3.385,3.385,0,0,1-.977,2.368Zm-43.084,30h18.331V958.5H937.333v31.837Zm20-36.026H935.666v1.676a0.838,0.838,0,0,0,.834.838h20a0.838,0.838,0,0,0,.834-0.838v-1.676Zm0,22.621v13.4h3.332v-13.4A1.666,1.666,0,1,0,957.331,976.927ZM964,969.734L960,973.749a3.345,3.345,0,0,1,2.25,2.473L964,974.469v-4.735Zm5-5.027-3.333,3.351v4.735L969,969.442v-4.735Zm5-5.027-3.333,3.351v4.735L974,964.415V959.68Zm5-5.027L975.662,958v4.736L979,959.388v-4.735Zm2.844-.492a1.657,1.657,0,0,0-1.178-.489v4.041l1.178-1.184A1.678,1.678,0,0,0,981.839,954.161Zm-22.25,24.2-0.125.1a0.648,0.648,0,0,1-.151.076,0.52,0.52,0,0,1-.15.05,1.153,1.153,0,0,1-.166.017,0.842,0.842,0,0,1-.317-0.067,0.97,0.97,0,0,1-.275-0.176,0.862,0.862,0,0,1-.175-0.277,0.827,0.827,0,0,1-.066-0.318,1.18,1.18,0,0,1,.016-0.168,0.547,0.547,0,0,1,.05-0.151,0.638,0.638,0,0,1,.075-0.15l0.1-.126a0.85,0.85,0,0,1,.275-0.176,0.831,0.831,0,0,1,.909.176l0.1,0.126a0.6,0.6,0,0,1,.075.15,0.585,0.585,0,0,1,.051.151,1.194,1.194,0,0,1,.016.168,0.846,0.846,0,0,1-.066.318A0.88,0.88,0,0,1,959.589,978.36Zm-7.258-2.271H940.666A1.673,1.673,0,0,1,939,974.414V961.847a1.673,1.673,0,0,1,1.667-1.676h11.665A1.673,1.673,0,0,1,954,961.847v12.567A1.673,1.673,0,0,1,952.331,976.089Zm-7.5-1.675h3.333v-1.676a0.837,0.837,0,0,0-.833-0.838h-1.667a0.837,0.837,0,0,0-.833.838v1.676Zm7.5-12.567H940.666v12.567h2.5v-1.676a2.509,2.509,0,0,1,2.5-2.514h1.667a2.509,2.509,0,0,1,2.5,2.514v1.676h2.5V961.847ZM941.5,977.765h10a1.672,1.672,0,0,1,1.666,1.676v7.54a1.673,1.673,0,0,1-1.666,1.676h-10a1.673,1.673,0,0,1-1.666-1.676v-7.54A1.672,1.672,0,0,1,941.5,977.765Zm0,9.216h10v-7.54h-10v7.54Zm7.5-1.676h-5a0.838,0.838,0,0,1,0-1.676h5A0.838,0.838,0,0,1,949,985.305Zm0-2.513h-5a0.838,0.838,0,0,1,0-1.676h5A0.838,0.838,0,0,1,949,982.792Zm32.5,7.54h1.667a0.838,0.838,0,0,1,0,1.676h-1.667A0.838,0.838,0,0,1,981.494,990.332Z" transform="translate(-934 -947.015)"/>
</svg>
