<svg xmlns="http://www.w3.org/2000/svg" width="50" height="50" viewBox="0 0 50 50">
  <metadata><?xpacket begin="﻿" id="W5M0MpCehiHzreSzNTczkc9d"?>
<x:xmpmeta xmlns:x="adobe:ns:meta/" x:xmptk="Adobe XMP Core 5.6-c138 79.159824, 2016/09/14-01:09:01        ">
   <rdf:RDF xmlns:rdf="http://www.w3.org/1999/02/22-rdf-syntax-ns#">
      <rdf:Description rdf:about=""/>
   </rdf:RDF>
</x:xmpmeta>
                                                                                                    
                                                                                                    
                                                                                                    
                                                                                                    
                                                                                                    
                                                                                                    
                                                                                                    
                                                                                                    
                                                                                                    
                                                                                                    
                                                                                                    
                                                                                                    
                                                                                                    
                                                                                                    
                                                                                                    
                                                                                                    
                                                                                                    
                                                                                                    
                                                                                                    
                                                                                                    
                           
<?xpacket end="w"?></metadata>
<defs>
    <style>
      .cls-1 {
        fill: #6a462b;
        fill-rule: evenodd;
      }
    </style>
  </defs>
  <path id="_01_electricity" data-name="01_electricity" class="cls-1" d="M771.811,969.965l-1.486-1.81a11.662,11.662,0,0,0,0-16.346L771.811,950A13.993,13.993,0,0,1,771.811,969.965Zm-2.725-5.19-1.486-1.808a4.335,4.335,0,0,0,0-5.969l1.486-1.809A6.662,6.662,0,0,1,769.086,964.775Zm-7.016.13,7.385,25.1h-2.431l-1.835-6.236h-9.3L754.056,990h-2.43L759,964.929A5.133,5.133,0,1,1,762.07,964.905Zm-5.487,16.51H764.5l-1.243-4.227h-5.427Zm1.935-6.576h4.044l-2.021-6.869Zm1.981-17.68a2.823,2.823,0,1,0,2.8,2.823A2.816,2.816,0,0,0,760.5,957.159Zm-7.1,5.808-1.487,1.808a6.662,6.662,0,0,1,0-9.586L753.4,957A4.335,4.335,0,0,0,753.4,962.967Zm-6.068-2.984a10.777,10.777,0,0,0,3.342,8.173l-1.485,1.809a13.991,13.991,0,0,1,0-19.965l1.485,1.809A10.775,10.775,0,0,0,747.331,959.983Z" transform="translate(-735.5 -945)"/>
</svg>
