<svg xmlns="http://www.w3.org/2000/svg" width="50" height="50" viewBox="0 0 50 50">
  <metadata><?xpacket begin="﻿" id="W5M0MpCehiHzreSzNTczkc9d"?>
<x:xmpmeta xmlns:x="adobe:ns:meta/" x:xmptk="Adobe XMP Core 5.6-c138 79.159824, 2016/09/14-01:09:01        ">
   <rdf:RDF xmlns:rdf="http://www.w3.org/1999/02/22-rdf-syntax-ns#">
      <rdf:Description rdf:about=""/>
   </rdf:RDF>
</x:xmpmeta>
                                                                                                    
                                                                                                    
                                                                                                    
                                                                                                    
                                                                                                    
                                                                                                    
                                                                                                    
                                                                                                    
                                                                                                    
                                                                                                    
                                                                                                    
                                                                                                    
                                                                                                    
                                                                                                    
                                                                                                    
                                                                                                    
                                                                                                    
                                                                                                    
                                                                                                    
                                                                                                    
                           
<?xpacket end="w"?></metadata>
<defs>
    <style>
      .cls-1 {
        fill: #6a462b;
        fill-rule: evenodd;
      }
    </style>
  </defs>
  <path id="_04_parking" data-name="04_parking" class="cls-1" d="M1174.17,969.17a5,5,0,1,0,5,5A5,5,0,0,0,1174.17,969.17Zm0,8.332a3.333,3.333,0,1,1,3.33-3.333A3.339,3.339,0,0,1,1174.17,977.5Zm10,10a0.831,0.831,0,0,0,.83-0.833V948.34a0.831,0.831,0,0,0-.83-0.833h-9a5.865,5.865,0,0,0-5.78,5.008l-1.18,8.323h-2.38v-1.666a0.831,0.831,0,0,0-.83-0.833h-3.33a2.5,2.5,0,0,0-2.5,2.5v1.667a2.5,2.5,0,0,0,2.5,2.5H1165a0.83,0.83,0,0,0,.83-0.833v-1.666h2.14l-0.39,2.725a5.848,5.848,0,0,0-4.25,5.607V977.5h-1.66a0.84,0.84,0,0,0-.84.834v2.5H1160a0.831,0.831,0,0,0-.83.833v5a0.831,0.831,0,0,0,.83.833h5.83v5.832h-14.16V971.67a0.839,0.839,0,0,0-.84-0.833H1150v-7.854a9.167,9.167,0,1,0-5,0v7.854h-0.83a0.839,0.839,0,0,0-.84.833v21.663h-7.5a0.834,0.834,0,0,0,0,1.667h48.34a0.834,0.834,0,0,0,0-1.667h-10V987.5h10Zm-20-24.163h-2.5a0.839,0.839,0,0,1-.84-0.833v-1.667a0.839,0.839,0,0,1,.84-0.833h2.5v3.333ZM1140,954.173a7.5,7.5,0,1,1,7.5,7.5A7.5,7.5,0,0,1,1140,954.173Zm8.33,9.123v7.541h-1.66V963.3c0.27,0.024.55,0.042,0.83,0.042S1148.06,963.32,1148.33,963.3Zm1.67,30.037h-5V976.669h5v16.664Zm0-18.33h-5v-2.5h5V975Zm21.04-22.252a4.2,4.2,0,0,1,4.13-3.578h8.16V965h-14.04Zm-8.54,26.418h1.67a0.831,0.831,0,0,0,.83-0.833v-7.5a4.172,4.172,0,0,1,4.17-4.166h14.16v14.164H1162.5v-1.666Zm10,14.164h-5V987.5h1.67v3.333a0.83,0.83,0,1,0,1.66,0V987.5h1.67v5.832Zm-11.67-7.5V982.5h22.5v3.333h-1.66V985a0.839,0.839,0,0,0-.84-0.833,0.831,0.831,0,0,0-.83.833v0.834h-1.67V985a0.83,0.83,0,1,0-1.66,0v0.834h-15.84Zm-10-33.329c0-2.636-1.63-3.333-2.5-3.333h-2.5a0.831,0.831,0,0,0-.83.833v8.333a0.831,0.831,0,0,0,.83.833,0.839,0.839,0,0,0,.84-0.833v-2.5h1.66C1149.2,955.839,1150.83,955.142,1150.83,952.506Zm-4.16-1.666h1.64c0.14,0.01.86,0.133,0.86,1.666s-0.72,1.658-.84,1.667h-1.66V950.84Zm33.08,2.754a0.835,0.835,0,0,0-1.17-.01l-5,5a0.825,0.825,0,0,0,0,1.178,0.836,0.836,0,0,0,1.18,0l5-5A0.84,0.84,0,0,0,1179.75,953.594Zm0.49,4.156-3.33,3.333a0.834,0.834,0,1,0,1.18,1.178l3.33-3.333A0.834,0.834,0,0,0,1180.24,957.75Z" transform="translate(-1135 -945)"/>
</svg>
