<svg xmlns="http://www.w3.org/2000/svg" width="50" height="50" viewBox="0 0 50 50">
  <metadata><?xpacket begin="﻿" id="W5M0MpCehiHzreSzNTczkc9d"?>
<x:xmpmeta xmlns:x="adobe:ns:meta/" x:xmptk="Adobe XMP Core 5.6-c138 79.159824, 2016/09/14-01:09:01        ">
   <rdf:RDF xmlns:rdf="http://www.w3.org/1999/02/22-rdf-syntax-ns#">
      <rdf:Description rdf:about=""/>
   </rdf:RDF>
</x:xmpmeta>
                                                                                                    
                                                                                                    
                                                                                                    
                                                                                                    
                                                                                                    
                                                                                                    
                                                                                                    
                                                                                                    
                                                                                                    
                                                                                                    
                                                                                                    
                                                                                                    
                                                                                                    
                                                                                                    
                                                                                                    
                                                                                                    
                                                                                                    
                                                                                                    
                                                                                                    
                                                                                                    
                           
<?xpacket end="w"?></metadata>
<defs>
    <style>
      .cls-1 {
        fill: #6a462b;
        fill-rule: evenodd;
      }
    </style>
  </defs>
  <path id="_05_bin" data-name="05_bin" class="cls-1" d="M1384.17,974.167h-0.22l-2.32-7.74a0.829,0.829,0,0,0-.8-0.594h-11.66a0.829,0.829,0,0,0-.8.594l-0.87,2.9-0.87-2.9a0.829,0.829,0,0,0-.8-0.594h-11.66a0.829,0.829,0,0,0-.8.594l-0.87,2.9-0.87-2.9a0.829,0.829,0,0,0-.8-0.594h-11.66a0.829,0.829,0,0,0-.8.594l-2.32,7.74h-0.22a0.831,0.831,0,0,0-.83.833v3.333a0.831,0.831,0,0,0,.83.834v15a0.839,0.839,0,0,0,.84.833h46.66a0.839,0.839,0,0,0,.84-0.833v-15a0.831,0.831,0,0,0,.83-0.834V975A0.831,0.831,0,0,0,1384.17,974.167Zm-47.5,3.333v-1.667H1350V977.5h-13.33Zm15,0v-1.667h16.66V977.5h-16.66Zm18.33-1.667h13.33V977.5H1370v-1.667Zm7.5-8.333v3.333h-5V967.5h5Zm-7.71,0h1.04v4.167a0.839,0.839,0,0,0,.84.833h6.66a0.839,0.839,0,0,0,.84-0.833V967.5h1.04l2,6.667h-13.26l-0.58-1.943Zm-7.29,0v3.333h-5V967.5h5Zm-7.71,0h1.04v4.167a0.839,0.839,0,0,0,.84.833h6.66a0.839,0.839,0,0,0,.84-0.833V967.5h1.04l1.49,4.962v0l0.46,1.533,0.05,0.169h-14.42l0.05-.169,0.46-1.533v0Zm-7.29,0v3.333h-5V967.5h5Zm-7.71,0h1.04v4.167a0.839,0.839,0,0,0,.84.833h6.66a0.839,0.839,0,0,0,.84-0.833V967.5h1.04l1.42,4.723-0.58,1.944h-13.26Zm-2.29,11.667h13.33v14.166H1337.5V979.167Zm15,0h15v14.166h-15V979.167Zm30,14.166h-13.33V979.167h13.33v14.166ZM1352.05,952.4a4.18,4.18,0,0,0,5.9,0l1.56-1.566h1.58a3.2,3.2,0,0,0,.82,3.09l0.83,0.833a0.849,0.849,0,0,0,.59.244,0.815,0.815,0,0,0,.59-0.244l2.26-2.256H1375a0.831,0.831,0,0,0,.83-0.833v-5.834A0.831,0.831,0,0,0,1375,945h-16.67a0.845,0.845,0,0,0-.59.244l-5.83,5.833a0.844,0.844,0,0,0,0,1.179Zm22.12-1.566h-5v-4.166h5v4.166Zm-15.49-4.166h8.82v4.166h-1.67a0.845,0.845,0,0,0-.59.244l-1.91,1.911-0.24-.244a1.533,1.533,0,0,1,0-2.155,0.833,0.833,0,0,0-.59-1.422h-3.33a0.827,0.827,0,0,0-.59.244l-1.81,1.809a2.564,2.564,0,0,1-3.04.39Zm3.4,36.617a2.5,2.5,0,0,0-4.16,0l-1.89,2.829a2.5,2.5,0,0,0,2.08,3.887h3.78a2.5,2.5,0,0,0,2.08-3.887Zm0.54,4.609a0.805,0.805,0,0,1-.73.44h-3.78a0.805,0.805,0,0,1-.73-0.44,0.815,0.815,0,0,1,.04-0.855l1.89-2.829a0.849,0.849,0,0,1,1.38,0l1.89,2.829A0.815,0.815,0,0,1,1362.62,987.893Zm9.64,2.7,1.07-1.077v1.321a0.839,0.839,0,0,0,.84.834h3.33a0.831,0.831,0,0,0,.83-0.834v-1.321l1.08,1.077,1.18-1.178-1.28-1.282a4.162,4.162,0,0,0,0-4.59l1.28-1.283-1.18-1.179-1.28,1.284a4.142,4.142,0,0,0-4.59,0l-1.28-1.284-1.18,1.179,1.28,1.283a4.111,4.111,0,0,0-.69,2.294,4.191,4.191,0,0,0,.69,2.3l-1.28,1.282Zm3.57-7.256a2.5,2.5,0,0,1,2.35,1.667h-1.51v1.667h1.5a2.494,2.494,0,0,1-1.09,1.327,0.845,0.845,0,0,0-.41.723V990H1375v-1.283a0.833,0.833,0,0,0-.42-0.723,2.432,2.432,0,0,1-1.08-1.327h1.5V985h-1.51A2.488,2.488,0,0,1,1375.83,983.333Zm-29.16-1.666H1345v2.155l-0.83.833-0.84-.833v-2.155h-1.66v1.666H1340V985h2.15l1.18,1.178v0.977l-1.42,1.422,1.18,1.179,1.08-1.078,1.07,1.078,1.18-1.179-1.42-1.422v-0.977l1.18-1.178h2.15v-1.667h-1.66v-1.666Zm12.62-26.275-4.16,6.667a0.824,0.824,0,0,0-.09.7,0.836,0.836,0,0,0,.48.515l4.17,1.667a0.844,0.844,0,0,0,.62,0l4.17-1.667a0.836,0.836,0,0,0,.48-0.515,0.824,0.824,0,0,0-.09-0.7l-4.16-6.667A0.872,0.872,0,0,0,1359.29,955.392Zm1.54,7.544v-2.1h-1.66v2.1l-2.1-.84,2.93-4.69,2.93,4.69Z" transform="translate(-1335 -945)"/>
</svg>
