<svg xmlns="http://www.w3.org/2000/svg" width="18" height="18" viewBox="0 0 18 18">
  <metadata><?xpacket begin="﻿" id="W5M0MpCehiHzreSzNTczkc9d"?>
<x:xmpmeta xmlns:x="adobe:ns:meta/" x:xmptk="Adobe XMP Core 5.6-c138 79.159824, 2016/09/14-01:09:01        ">
   <rdf:RDF xmlns:rdf="http://www.w3.org/1999/02/22-rdf-syntax-ns#">
      <rdf:Description rdf:about=""/>
   </rdf:RDF>
</x:xmpmeta>
                                                                                                    
                                                                                                    
                                                                                                    
                                                                                                    
                                                                                                    
                                                                                                    
                                                                                                    
                                                                                                    
                                                                                                    
                                                                                                    
                                                                                                    
                                                                                                    
                                                                                                    
                                                                                                    
                                                                                                    
                                                                                                    
                                                                                                    
                                                                                                    
                                                                                                    
                                                                                                    
                           
<?xpacket end="w"?></metadata>
<defs>
    <style>
      .cls-1 {
        fill: #c2c2c2;
        fill-rule: evenodd;
      }
    </style>
  </defs>
  <path id="phone" class="cls-1" d="M1316.54,498a12.312,12.312,0,0,0,.45,2.59l-1.2,1.2a14.826,14.826,0,0,1-.76-3.79h1.51m9.86,12.02a12.753,12.753,0,0,0,2.6.45v1.49a15.426,15.426,0,0,1-3.8-.75l1.2-1.19M1317.5,496H1314a1,1,0,0,0-1,1,17,17,0,0,0,17,17,1,1,0,0,0,1-1v-3.49a1,1,0,0,0-1-1,11.407,11.407,0,0,1-3.57-.57,0.84,0.84,0,0,0-.31-0.05,1.024,1.024,0,0,0-.71.29l-2.2,2.2a15.149,15.149,0,0,1-6.59-6.59l2.2-2.2a1,1,0,0,0,.25-1.02,11.36,11.36,0,0,1-.57-3.57,1,1,0,0,0-1-1h0Z" transform="translate(-1313 -496)"/>
</svg>
